<?xml version="1.0" standalone="no"?>
<!DOCTYPE svg PUBLIC "-//W3C//DTD SVG 20010904//EN"
 "http://www.w3.org/TR/2001/REC-SVG-20010904/DTD/svg10.dtd">
<svg version="1.0" xmlns="http://www.w3.org/2000/svg"
 width="500.000000pt" height="500.000000pt" viewBox="0 0 500.000000 500.000000"
 preserveAspectRatio="xMidYMid meet">
<metadata>
Created by potrace 1.16, written by Peter Selinger 2001-2019
</metadata>
<g transform="translate(0.000000,500.000000) scale(0.100000,-0.100000)"
fill="#000000" stroke="none">
<path d="M1710 2930 l0 -470 158 0 c181 0 272 17 372 71 164 87 264 294 231
478 -35 193 -167 330 -363 376 -42 10 -117 15 -230 15 l-168 0 0 -470z m463
371 c21 -7 60 -33 87 -59 69 -67 85 -125 85 -307 0 -172 -16 -235 -76 -300
-62 -67 -123 -87 -291 -93 l-138 -5 0 393 0 392 148 -5 c81 -2 164 -10 185
-16z"/>
<path d="M2545 3373 c3 -16 56 -226 118 -468 l113 -440 79 0 79 0 78 300 c43
165 83 337 90 383 l12 82 53 0 c29 0 53 -2 53 -4 0 -28 44 -218 107 -463 l78
-303 141 0 141 0 39 126 38 127 81 -7 c44 -3 150 -6 236 -6 l156 0 37 -120 37
-120 49 0 c28 0 50 3 50 8 0 4 -73 215 -162 470 l-162 462 -191 0 -191 0 -69
-292 c-86 -368 -104 -455 -105 -495 l0 -33 -54 0 -54 0 -7 43 c-14 96 -39 209
-80 361 -23 89 -57 218 -75 289 l-33 127 -57 0 -58 0 -20 -77 c-11 -43 -49
-190 -85 -328 -36 -137 -71 -287 -78 -332 l-13 -83 -51 0 -50 0 -17 98 c-17
96 -155 700 -165 714 -2 5 -25 8 -49 8 -45 0 -45 -1 -39 -27z m1516 -85 c6
-24 35 -120 65 -215 38 -122 54 -188 54 -228 l0 -55 -180 0 -180 0 0 55 c0 39
17 109 56 236 30 99 58 196 61 215 6 34 6 34 59 34 l53 0 12 -42z"/>
<path d="M916 3280 c-202 -85 -350 -321 -350 -560 0 -167 63 -320 184 -440 99
-99 168 -134 265 -135 55 0 82 6 125 26 149 71 271 236 314 426 31 138 13 257
-60 410 -104 218 -317 340 -478 273z"/>
</g>
</svg>
